<svg width="14" height="15" viewBox="0 0 14 15" fill="none" xmlns="http://www.w3.org/2000/svg">
<path d="M7.10903 0.744263C3.4899 0.744263 0.432892 3.80127 0.432892 7.4204C0.432892 11.0395 3.4899 14.0965 7.10903 14.0965C10.7282 14.0965 13.7852 11.0395 13.7852 7.4204C13.7852 3.80127 10.7282 0.744263 7.10903 0.744263ZM7.10903 4.08233C8.262 4.08233 9.11187 4.93154 9.11187 6.08517C9.11187 7.23881 8.262 8.08801 7.10903 8.08801C5.95673 8.08801 5.10619 7.23881 5.10619 6.08517C5.10619 4.93154 5.95673 4.08233 7.10903 4.08233ZM3.70019 10.6063C4.29904 9.725 5.29779 9.1375 6.44142 9.1375H7.77664C8.92093 9.1375 9.91902 9.725 10.5179 10.6063C9.66466 11.5195 8.45427 12.0937 7.10903 12.0937C5.76379 12.0937 4.5534 11.5195 3.70019 10.6063Z" fill="#FF0D0B"/>
</svg>
