<svg width="40" height="40" viewBox="0 0 40 40" fill="none" xmlns="http://www.w3.org/2000/svg">
<path d="M15.7271 37.5084L23.1479 34.3584C23.2833 35.2706 23.112 36.202 22.661 37.0065C22.2099 37.8109 21.5046 38.4429 20.6557 38.8032C19.8068 39.1636 18.8622 39.232 17.9702 38.9976C17.0782 38.7633 16.2893 38.2395 15.7271 37.5084ZM27.0437 0.362529C31.3896 2.73753 34.6521 5.78545 36.7979 9.50211C38.9437 13.2188 39.9542 17.5688 39.8375 22.5188C39.8278 22.9332 39.6539 23.3268 39.3541 23.613C39.0542 23.8991 38.6529 24.0545 38.2385 24.0448C37.8241 24.0352 37.4305 23.8613 37.1444 23.5614C36.8582 23.2615 36.7028 22.8603 36.7125 22.4459C36.8167 18.0459 35.9375 14.2625 34.0917 11.0646C32.2458 7.8667 29.4062 5.21461 25.5458 3.10628C25.182 2.90737 24.9121 2.57206 24.7954 2.17414C24.6788 1.77621 24.725 1.34825 24.924 0.984404C25.1229 0.62056 25.4582 0.350636 25.8561 0.234012C26.254 0.117388 26.682 0.163617 27.0458 0.362529H27.0437ZM7.98125 9.57295C10.8478 8.29291 14.0989 8.17378 17.0515 9.24059C20.0041 10.3074 22.4282 12.4771 23.8146 15.2938L24.0187 15.7313L26.7021 21.7542L30.2396 24.8167C30.4333 24.9834 30.6 25.1792 30.7937 25.4938L30.9167 25.7313C31.0554 26.0441 31.1312 26.3812 31.1396 26.7233C31.1479 27.0654 31.0888 27.4058 30.9656 27.7251C30.8423 28.0443 30.6574 28.3362 30.4213 28.5839C30.1852 28.8316 29.9025 29.0304 29.5896 29.1688L8.07291 38.6875C7.67656 38.8626 7.24279 38.936 6.81091 38.901C6.37904 38.8661 5.9627 38.724 5.59962 38.4875C5.23655 38.251 4.93821 37.9277 4.73165 37.5468C4.52508 37.166 4.41682 36.7396 4.41666 36.3063L4.41458 31.425L1.82708 25.6084C1.17604 24.1518 0.818759 22.5811 0.775691 20.9863C0.732623 19.3915 1.00462 17.8038 1.5761 16.3142C2.14758 14.8247 3.00731 13.4625 4.10605 12.3057C5.2048 11.1489 6.52096 10.2203 7.97916 9.57295H7.98125ZM26.55 7.86461C28.5646 8.96253 30.1792 10.5604 31.375 12.6334C32.5708 14.7063 33.1479 16.9042 33.0917 19.1959C33.0867 19.4011 33.0414 19.6033 32.9584 19.791C32.8753 19.9786 32.7561 20.1481 32.6075 20.2897C32.4589 20.4313 32.2839 20.5423 32.0925 20.6163C31.901 20.6902 31.6969 20.7258 31.4917 20.7209C31.2865 20.7159 31.0843 20.6706 30.8966 20.5876C30.7089 20.5045 30.5394 20.3853 30.3978 20.2367C30.2562 20.0881 30.1452 19.9131 30.0713 19.7217C29.9973 19.5302 29.9617 19.3261 29.9667 19.1209C30.0083 17.4084 29.5812 15.7771 28.6687 14.1959C27.7562 12.6125 26.5562 11.425 25.0542 10.6084C24.6903 10.41 24.4202 10.0752 24.3032 9.67769C24.1861 9.28016 24.2318 8.85242 24.4302 8.48857C24.6286 8.12473 24.9633 7.85458 25.3609 7.73757C25.7584 7.62055 26.1862 7.66625 26.55 7.86461Z" fill="#FF0D0B"/>
</svg>
