<svg width="50" height="50" viewBox="0 0 50 50" fill="none" xmlns="http://www.w3.org/2000/svg">
<path d="M44.6429 -0.428589H5.35714C2.39955 -0.428589 0 1.97096 0 4.92855V44.2143C0 47.1719 2.39955 49.5714 5.35714 49.5714H44.6429C47.6004 49.5714 50 47.1719 50 44.2143V4.92855C50 1.97096 47.6004 -0.428589 44.6429 -0.428589ZM39.1853 17.2946C39.2076 17.6071 39.2076 17.9308 39.2076 18.2433C39.2076 27.9196 31.8415 39.0692 18.3817 39.0692C14.2299 39.0692 10.3795 37.8638 7.14286 35.7879C7.73438 35.8549 8.30357 35.8772 8.90625 35.8772C12.3326 35.8772 15.4799 34.7165 17.9911 32.7522C14.7768 32.6852 12.0759 30.5759 11.1496 27.6741C12.2768 27.8415 13.2924 27.8415 14.4531 27.5402C11.1049 26.8594 8.59375 23.9129 8.59375 20.3527V20.2634C9.56473 20.8102 10.7031 21.1451 11.8973 21.1897C10.8933 20.5219 10.0703 19.6159 9.50164 18.5526C8.93299 17.4893 8.63642 16.3018 8.63839 15.096C8.63839 13.7344 8.99554 12.4844 9.6317 11.4018C13.2366 15.8437 18.6496 18.7455 24.721 19.058C23.683 14.0915 27.3996 10.0625 31.8638 10.0625C33.9732 10.0625 35.8705 10.9442 37.2098 12.3728C38.8616 12.0603 40.4464 11.4464 41.8527 10.6094C41.3058 12.3058 40.1562 13.7344 38.6384 14.6384C40.1116 14.4821 41.5402 14.0692 42.8571 13.5C41.8638 14.962 40.6138 16.2567 39.1853 17.2946Z" fill="black"/>
</svg>
