<svg width="50" height="50" viewBox="0 0 50 50" fill="none" xmlns="http://www.w3.org/2000/svg">
<path d="M47.0972 -0.125H2.65278C1.91607 -0.125 1.20953 0.167658 0.688592 0.688592C0.167658 1.20953 -0.125 1.91607 -0.125 2.65278V47.0972C-0.125 47.8339 0.167658 48.5405 0.688592 49.0614C1.20953 49.5823 1.91607 49.875 2.65278 49.875H26.5833V30.5417H20.0889V22.9722H26.5833V17.4167C26.5833 10.9583 30.5278 7.43889 36.3056 7.43889C38.2472 7.43333 40.1917 7.53333 42.125 7.73611V14.4583H38.1389C35.0056 14.4583 34.3944 15.9528 34.3944 18.1389V22.9583H41.8861L40.9139 30.5278H34.3917V49.875H47.0972C47.8339 49.875 48.5405 49.5823 49.0614 49.0614C49.5823 48.5405 49.875 47.8339 49.875 47.0972V2.65278C49.875 1.91607 49.5823 1.20953 49.0614 0.688592C48.5405 0.167658 47.8339 -0.125 47.0972 -0.125Z" fill="black"/>
</svg>
