<svg width="50" height="36" viewBox="0 0 50 36" fill="none" xmlns="http://www.w3.org/2000/svg">
<path d="M50 30.8642V4.40917C50 1.96943 48.0306 0 45.5908 0H4.40917C1.96943 0 0 1.96943 0 4.40917V30.8642C0 33.3039 1.96943 35.2734 4.40917 35.2734H45.5908C48.0306 35.2734 50 33.3039 50 30.8642ZM46.1493 4.08583C47.1193 5.05585 46.5902 6.05526 46.0611 6.55497L34.127 17.4897L45.5908 29.4239C45.9436 29.8354 46.1787 30.4821 45.7672 30.923C45.3851 31.3933 44.5032 31.3639 44.1211 31.07L31.2757 20.1058L24.9853 25.8377L18.7243 20.1058L5.87889 31.07C5.49677 31.3639 4.61493 31.3933 4.2328 30.923C3.82128 30.4821 4.05644 29.8354 4.40917 29.4239L15.873 17.4897L3.93886 6.55497C3.40976 6.05526 2.88066 5.05585 3.85068 4.08583C4.82069 3.11581 5.82011 3.58613 6.64315 4.29159L24.9853 19.1064L43.3568 4.29159C44.1799 3.58613 45.1793 3.11581 46.1493 4.08583Z" fill="black"/>
</svg>
