<svg width="46" height="46" viewBox="0 0 46 46" fill="none" xmlns="http://www.w3.org/2000/svg">
<path fill-rule="evenodd" clip-rule="evenodd" d="M13.5521 0.220874C15.9958 0.108374 16.775 0.083374 23 0.083374C29.225 0.083374 30.0041 0.110457 32.4458 0.220874C34.8875 0.331291 36.5541 0.720874 38.0125 1.28546C39.5396 1.86254 40.925 2.76462 42.0708 3.93129C43.2375 5.07504 44.1375 6.45837 44.7125 7.98754C45.2791 9.44587 45.6666 11.1125 45.7791 13.55C45.8916 15.998 45.9166 16.7771 45.9166 23C45.9166 29.225 45.8896 30.0042 45.7791 32.448C45.6687 34.8855 45.2791 36.5521 44.7125 38.0105C44.1375 39.5398 43.236 40.9255 42.0708 42.0709C40.925 43.2375 39.5396 44.1375 38.0125 44.7125C36.5541 45.2792 34.8875 45.6667 32.45 45.7792C30.0041 45.8917 29.225 45.9167 23 45.9167C16.775 45.9167 15.9958 45.8896 13.5521 45.7792C11.1146 45.6688 9.4479 45.2792 7.98956 44.7125C6.46023 44.1375 5.07461 43.236 3.92915 42.0709C2.76327 40.9264 1.86105 39.5415 1.2854 38.0125C0.720813 36.5542 0.333313 34.8875 0.220813 32.45C0.108313 30.0021 0.083313 29.223 0.083313 23C0.083313 16.775 0.110396 15.9959 0.220813 13.5542C0.33123 11.1125 0.720813 9.44587 1.2854 7.98754C1.8619 6.45854 2.76481 5.07361 3.93123 3.92921C5.07506 2.76358 6.4593 1.86138 7.98748 1.28546C9.44581 0.720874 11.1125 0.333374 13.55 0.220874H13.5521ZM32.2604 4.34587C29.8437 4.23546 29.1187 4.21254 23 4.21254C16.8812 4.21254 16.1562 4.23546 13.7396 4.34587C11.5041 4.44796 10.2916 4.82087 9.48331 5.13546C8.41456 5.55212 7.64998 6.04587 6.8479 6.84796C6.08757 7.58765 5.50244 8.48813 5.1354 9.48337C4.82081 10.2917 4.4479 11.5042 4.34581 13.7396C4.2354 16.1563 4.21248 16.8813 4.21248 23C4.21248 29.1188 4.2354 29.8438 4.34581 32.2605C4.4479 34.4959 4.82081 35.7084 5.1354 36.5167C5.50206 37.5105 6.08748 38.4125 6.8479 39.1521C7.58748 39.9125 8.48956 40.498 9.48331 40.8646C10.2916 41.1792 11.5041 41.5521 13.7396 41.6542C16.1562 41.7646 16.8791 41.7875 23 41.7875C29.1208 41.7875 29.8437 41.7646 32.2604 41.6542C34.4958 41.5521 35.7083 41.1792 36.5166 40.8646C37.5854 40.448 38.35 39.9542 39.1521 39.1521C39.9125 38.4125 40.4979 37.5105 40.8646 36.5167C41.1791 35.7084 41.5521 34.4959 41.6541 32.2605C41.7646 29.8438 41.7875 29.1188 41.7875 23C41.7875 16.8813 41.7646 16.1563 41.6541 13.7396C41.5521 11.5042 41.1791 10.2917 40.8646 9.48337C40.4479 8.41462 39.9541 7.65004 39.1521 6.84796C38.4123 6.08769 37.5119 5.50256 36.5166 5.13546C35.7083 4.82087 34.4958 4.44796 32.2604 4.34587ZM20.0729 30.0646C21.7076 30.7451 23.5279 30.8369 25.2227 30.3245C26.9176 29.812 28.382 28.7269 29.3658 27.2547C30.3496 25.7825 30.7918 24.0144 30.6167 22.2523C30.4417 20.4903 29.6604 18.8437 28.4062 17.5938C27.6067 16.7948 26.64 16.183 25.5757 15.8024C24.5113 15.4219 23.3759 15.282 22.251 15.393C21.1261 15.5039 20.0399 15.8629 19.0704 16.4441C18.1009 17.0252 17.2724 17.8141 16.6444 18.7539C16.0164 19.6937 15.6045 20.7611 15.4386 21.8791C15.2726 22.9972 15.3565 24.1381 15.6844 25.2199C16.0123 26.3016 16.576 27.2971 17.3348 28.1349C18.0936 28.9726 19.0288 29.6317 20.0729 30.0646ZM14.6708 14.6709C15.7646 13.5771 17.0631 12.7094 18.4923 12.1175C19.9214 11.5255 21.4531 11.2208 23 11.2208C24.5468 11.2208 26.0786 11.5255 27.5077 12.1175C28.9368 12.7094 30.2353 13.5771 31.3291 14.6709C32.4229 15.7647 33.2906 17.0632 33.8826 18.4923C34.4745 19.9214 34.7792 21.4532 34.7792 23C34.7792 24.5469 34.4745 26.0786 33.8826 27.5078C33.2906 28.9369 32.4229 30.2354 31.3291 31.3292C29.1201 33.5382 26.124 34.7793 23 34.7793C19.8759 34.7793 16.8798 33.5382 14.6708 31.3292C12.4618 29.1202 11.2208 26.1241 11.2208 23C11.2208 19.876 12.4618 16.8799 14.6708 14.6709ZM37.3916 12.975C37.6627 12.7194 37.8797 12.4119 38.0298 12.0708C38.1799 11.7298 38.26 11.3621 38.2654 10.9895C38.2709 10.6169 38.2015 10.247 38.0614 9.90173C37.9213 9.55644 37.7134 9.24277 37.4499 8.97929C37.1864 8.71581 36.8727 8.50787 36.5275 8.36779C36.1822 8.2277 35.8123 8.15832 35.4397 8.16375C35.0671 8.16919 34.6994 8.24932 34.3584 8.39941C34.0173 8.5495 33.7098 8.76649 33.4541 9.03754C32.9569 9.56468 32.6846 10.2649 32.6952 10.9895C32.7058 11.7141 32.9983 12.406 33.5107 12.9185C34.0231 13.4309 34.7151 13.7234 35.4397 13.734C36.1643 13.7446 36.8645 13.4723 37.3916 12.975Z" fill="black"/>
</svg>
